<?xml version='1.0' encoding='UTF-8' standalone='no'?>
<svg viewBox="0 0 418 314" xmlns="http://www.w3.org/2000/svg" width="418pt" height="314pt" xmlns:xlink="http://www.w3.org/1999/xlink">
 <title>Figure 1</title>
 <desc>
Creator: GL2PS 1.4.2, (C) 1999-2020 C. Geuzaine
For: Octave
CreationDate: Wed Jun 01 21:15:39 2022
</desc>
 <defs/>
 <polygon points="0,0 418,0 418,314 0,314" fill="#ffffff"/>
 <g>
  <polygon shape-rendering="crispEdges" points="0,314 418,314 418,0 0,0" fill="#ffffff"/>
  <clipPath id="cp00418314">
   <polygon points="0,314 418,314 418,0 0,0"/>
  </clipPath>
  <g clip-path="url(#cp00418314)">
   <polygon shape-rendering="crispEdges" points="54.4342,279.499 378.946,279.499 378.946,23.5532 54.4342,23.5532" fill="#ffffff"/>
   <polyline stroke="#262626" stroke-width="0.5" points="54.4342,279.499 54.4342,276.255" stroke-linecap="butt" fill="none" stroke-linejoin="miter"/>
   <polyline stroke="#262626" stroke-width="0.5" points="54.4342,23.5532 54.4342,26.7977" stroke-linecap="butt" fill="none" stroke-linejoin="miter"/>
   <polyline stroke="#262626" stroke-width="0.5" points="119.337,279.499 119.337,276.255" stroke-linecap="butt" fill="none" stroke-linejoin="miter"/>
   <polyline stroke="#262626" stroke-width="0.5" points="119.337,23.5532 119.337,26.7977" stroke-linecap="butt" fill="none" stroke-linejoin="miter"/>
   <polyline stroke="#262626" stroke-width="0.5" points="184.239,279.499 184.239,276.255" stroke-linecap="butt" fill="none" stroke-linejoin="miter"/>
   <polyline stroke="#262626" stroke-width="0.5" points="184.239,23.5532 184.239,26.7977" stroke-linecap="butt" fill="none" stroke-linejoin="miter"/>
   <polyline stroke="#262626" stroke-width="0.5" points="249.142,279.499 249.142,276.255" stroke-linecap="butt" fill="none" stroke-linejoin="miter"/>
   <polyline stroke="#262626" stroke-width="0.5" points="249.142,23.5532 249.142,26.7977" stroke-linecap="butt" fill="none" stroke-linejoin="miter"/>
   <polyline stroke="#262626" stroke-width="0.5" points="314.044,279.499 314.044,276.255" stroke-linecap="butt" fill="none" stroke-linejoin="miter"/>
   <polyline stroke="#262626" stroke-width="0.5" points="314.044,23.5532 314.044,26.7977" stroke-linecap="butt" fill="none" stroke-linejoin="miter"/>
   <polyline stroke="#262626" stroke-width="0.5" points="378.946,279.499 378.946,276.255" stroke-linecap="butt" fill="none" stroke-linejoin="miter"/>
   <polyline stroke="#262626" stroke-width="0.5" points="378.946,23.5532 378.946,26.7977" stroke-linecap="butt" fill="none" stroke-linejoin="miter"/>
   <g font-weight="normal" font-family="FreeSans" font-style="normal" transform="translate(42.4343,294.998) rotate(-0,12,-8)" xml:space="preserve" font-size="10">
    <text x="0 6 12 18 " y="-0" fill="rgb(38,38,38)">1000</text>
   </g>
   <g font-weight="normal" font-family="FreeSans" font-style="normal" transform="translate(107.337,294.998) rotate(-0,12,-8)" xml:space="preserve" font-size="10">
    <text x="0 6 12 18 " y="-0" fill="rgb(38,38,38)">1050</text>
   </g>
   <g font-weight="normal" font-family="FreeSans" font-style="normal" transform="translate(172.239,294.998) rotate(-0,12,-8)" xml:space="preserve" font-size="10">
    <text x="0 6 12 18 " y="-0" fill="rgb(38,38,38)">1100</text>
   </g>
   <g font-weight="normal" font-family="FreeSans" font-style="normal" transform="translate(237.142,294.998) rotate(-0,12,-8)" xml:space="preserve" font-size="10">
    <text x="0 6 12 18 " y="-0" fill="rgb(38,38,38)">1150</text>
   </g>
   <g font-weight="normal" font-family="FreeSans" font-style="normal" transform="translate(302.044,294.998) rotate(-0,12,-8)" xml:space="preserve" font-size="10">
    <text x="0 6 12 18 " y="-0" fill="rgb(38,38,38)">1200</text>
   </g>
   <g font-weight="normal" font-family="FreeSans" font-style="normal" transform="translate(366.946,294.998) rotate(-0,12,-8)" xml:space="preserve" font-size="10">
    <text x="0 6 12 18 " y="-0" fill="rgb(38,38,38)">1250</text>
   </g>
   <polyline stroke="#262626" stroke-width="0.5" points="54.4342,279.499 57.6745,279.499" stroke-linecap="butt" fill="none" stroke-linejoin="miter"/>
   <polyline stroke="#262626" stroke-width="0.5" points="378.946,279.499 375.706,279.499" stroke-linecap="butt" fill="none" stroke-linejoin="miter"/>
   <polyline stroke="#262626" stroke-width="0.5" points="54.4342,242.935 57.6745,242.935" stroke-linecap="butt" fill="none" stroke-linejoin="miter"/>
   <polyline stroke="#262626" stroke-width="0.5" points="378.946,242.935 375.706,242.935" stroke-linecap="butt" fill="none" stroke-linejoin="miter"/>
   <polyline stroke="#262626" stroke-width="0.5" points="54.4342,206.372 57.6745,206.372" stroke-linecap="butt" fill="none" stroke-linejoin="miter"/>
   <polyline stroke="#262626" stroke-width="0.5" points="378.946,206.372 375.706,206.372" stroke-linecap="butt" fill="none" stroke-linejoin="miter"/>
   <polyline stroke="#262626" stroke-width="0.5" points="54.4342,169.808 57.6745,169.808" stroke-linecap="butt" fill="none" stroke-linejoin="miter"/>
   <polyline stroke="#262626" stroke-width="0.5" points="378.946,169.808 375.706,169.808" stroke-linecap="butt" fill="none" stroke-linejoin="miter"/>
   <polyline stroke="#262626" stroke-width="0.5" points="54.4342,133.244 57.6745,133.244" stroke-linecap="butt" fill="none" stroke-linejoin="miter"/>
   <polyline stroke="#262626" stroke-width="0.5" points="378.946,133.244 375.706,133.244" stroke-linecap="butt" fill="none" stroke-linejoin="miter"/>
   <polyline stroke="#262626" stroke-width="0.5" points="54.4342,96.6807 57.6745,96.6807" stroke-linecap="butt" fill="none" stroke-linejoin="miter"/>
   <polyline stroke="#262626" stroke-width="0.5" points="378.946,96.6807 375.706,96.6807" stroke-linecap="butt" fill="none" stroke-linejoin="miter"/>
   <polyline stroke="#262626" stroke-width="0.5" points="54.4342,60.117 57.6745,60.117" stroke-linecap="butt" fill="none" stroke-linejoin="miter"/>
   <polyline stroke="#262626" stroke-width="0.5" points="378.946,60.117 375.706,60.117" stroke-linecap="butt" fill="none" stroke-linejoin="miter"/>
   <polyline stroke="#262626" stroke-width="0.5" points="54.4342,23.5532 57.6745,23.5532" stroke-linecap="butt" fill="none" stroke-linejoin="miter"/>
   <polyline stroke="#262626" stroke-width="0.5" points="378.946,23.5532 375.706,23.5532" stroke-linecap="butt" fill="none" stroke-linejoin="miter"/>
   <g font-weight="normal" font-family="FreeSans" font-style="normal" transform="translate(34.4418,283.499) rotate(-0,15,-4)" xml:space="preserve" font-size="10">
    <text x="0 6 9 " y="-0" fill="rgb(38,38,38)">5.4</text>
   </g>
   <g font-weight="normal" font-family="FreeSans" font-style="normal" transform="translate(34.4418,246.935) rotate(-0,15,-4)" xml:space="preserve" font-size="10">
    <text x="0 6 9 " y="-0" fill="rgb(38,38,38)">5.6</text>
   </g>
   <g font-weight="normal" font-family="FreeSans" font-style="normal" transform="translate(34.4418,210.372) rotate(-0,15,-4)" xml:space="preserve" font-size="10">
    <text x="0 6 9 " y="-0" fill="rgb(38,38,38)">5.8</text>
   </g>
   <g font-weight="normal" font-family="FreeSans" font-style="normal" transform="translate(43.4418,173.808) rotate(-0,6,-4)" xml:space="preserve" font-size="10">
    <text x="0 " y="-0" fill="rgb(38,38,38)">6</text>
   </g>
   <g font-weight="normal" font-family="FreeSans" font-style="normal" transform="translate(34.4418,137.244) rotate(-0,15,-4)" xml:space="preserve" font-size="10">
    <text x="0 6 9 " y="-0" fill="rgb(38,38,38)">6.2</text>
   </g>
   <g font-weight="normal" font-family="FreeSans" font-style="normal" transform="translate(34.4418,100.681) rotate(-0,15,-4)" xml:space="preserve" font-size="10">
    <text x="0 6 9 " y="-0" fill="rgb(38,38,38)">6.4</text>
   </g>
   <g font-weight="normal" font-family="FreeSans" font-style="normal" transform="translate(34.4418,64.117) rotate(-0,15,-4)" xml:space="preserve" font-size="10">
    <text x="0 6 9 " y="-0" fill="rgb(38,38,38)">6.6</text>
   </g>
   <g font-weight="normal" font-family="FreeSans" font-style="normal" transform="translate(34.4418,27.5533) rotate(-0,15,-4)" xml:space="preserve" font-size="10">
    <text x="0 6 9 " y="-0" fill="rgb(38,38,38)">6.8</text>
   </g>
   <polyline stroke="#262626" stroke-width="0.5" points="54.4342,279.499 378.946,279.499" stroke-dasharray="16,0" stroke-linecap="square" fill="none" stroke-linejoin="miter"/>
   <polyline stroke="#262626" stroke-width="0.5" points="54.4342,23.5532 378.946,23.5532" stroke-dasharray="16,0" stroke-linecap="square" fill="none" stroke-linejoin="miter"/>
   <polyline stroke="#262626" stroke-width="0.5" points="54.4342,279.499 54.4342,23.5532" stroke-dasharray="16,0" stroke-linecap="square" fill="none" stroke-linejoin="miter"/>
   <polyline stroke="#262626" stroke-width="0.5" points="378.946,279.499 378.946,23.5532" stroke-dasharray="16,0" stroke-linecap="square" fill="none" stroke-linejoin="miter"/>
   <g font-weight="bold" font-family="FreeSans" font-style="normal" transform="translate(195.19,13.5533) rotate(-0,21.5,0)" xml:space="preserve" font-size="11">
    <text x="0 6 12 18 21 25 31 37 " y="-3" fill="rgb(0,0,0)">cavity05</text>
   </g>
   <g font-weight="normal" font-family="FreeSans" font-style="normal" transform="translate(-21.5582,151.526) rotate(-90,51,0)" xml:space="preserve" font-size="11">
    <text x="0 2 8 14 18 26 32 37 39 45 51 57 60 68 74 76 82 85 87 92 98 " y="-3" fill="rgb(38,38,38)">log(Resíduo Relativo)</text>
   </g>
   <g font-weight="normal" font-family="FreeSans" font-style="normal" transform="translate(194.19,310.998) rotate(-0,22.5,-11)" xml:space="preserve" font-size="11">
    <text x="0 3 6 12 16 22 28 34 40 " y="-2" fill="rgb(38,38,38)">Iterações</text>
   </g>
   <polygon shape-rendering="crispEdges" points="221.385,138.405 220.385,138.405 219.885,137.539 220.385,136.673 221.385,136.673 221.885,137.539 221.885,137.539" fill="#0071bc"/>
  </g>
 </g>
</svg>
