<?xml version='1.0' encoding='UTF-8' standalone='no'?>
<svg width="418pt" viewBox="0 0 418 314" height="314pt" xmlns="http://www.w3.org/2000/svg" xmlns:xlink="http://www.w3.org/1999/xlink">
 <title>Figure 2</title>
 <desc>
Creator: GL2PS 1.4.2, (C) 1999-2020 C. Geuzaine
For: Octave
CreationDate: Wed Jun 01 21:17:25 2022
</desc>
 <defs/>
 <polygon points="0,0 418,0 418,314 0,314" fill="#ffffff"/>
 <g>
  <polygon points="0,314 418,314 418,0 0,0" fill="#ffffff" shape-rendering="crispEdges"/>
  <clipPath id="cp00418314">
   <polygon points="0,314 418,314 418,0 0,0"/>
  </clipPath>
  <g clip-path="url(#cp00418314)">
   <polygon points="54.4343,279.499 378.946,279.499 378.946,23.5533 54.4343,23.5533" fill="#ffffff" shape-rendering="crispEdges"/>
   <polyline stroke="#262626" stroke-linejoin="miter" points="54.4343,279.499 54.4343,276.255" fill="none" stroke-linecap="butt" stroke-width="0.5"/>
   <polyline stroke="#262626" stroke-linejoin="miter" points="54.4343,23.5533 54.4343,26.7977" fill="none" stroke-linecap="butt" stroke-width="0.5"/>
   <polyline stroke="#262626" stroke-linejoin="miter" points="119.337,279.499 119.337,276.255" fill="none" stroke-linecap="butt" stroke-width="0.5"/>
   <polyline stroke="#262626" stroke-linejoin="miter" points="119.337,23.5533 119.337,26.7977" fill="none" stroke-linecap="butt" stroke-width="0.5"/>
   <polyline stroke="#262626" stroke-linejoin="miter" points="184.239,279.499 184.239,276.255" fill="none" stroke-linecap="butt" stroke-width="0.5"/>
   <polyline stroke="#262626" stroke-linejoin="miter" points="184.239,23.5533 184.239,26.7977" fill="none" stroke-linecap="butt" stroke-width="0.5"/>
   <polyline stroke="#262626" stroke-linejoin="miter" points="249.142,279.499 249.142,276.255" fill="none" stroke-linecap="butt" stroke-width="0.5"/>
   <polyline stroke="#262626" stroke-linejoin="miter" points="249.142,23.5533 249.142,26.7977" fill="none" stroke-linecap="butt" stroke-width="0.5"/>
   <polyline stroke="#262626" stroke-linejoin="miter" points="314.044,279.499 314.044,276.255" fill="none" stroke-linecap="butt" stroke-width="0.5"/>
   <polyline stroke="#262626" stroke-linejoin="miter" points="314.044,23.5533 314.044,26.7977" fill="none" stroke-linecap="butt" stroke-width="0.5"/>
   <polyline stroke="#262626" stroke-linejoin="miter" points="378.946,279.499 378.946,276.255" fill="none" stroke-linecap="butt" stroke-width="0.5"/>
   <polyline stroke="#262626" stroke-linejoin="miter" points="378.946,23.5533 378.946,26.7977" fill="none" stroke-linecap="butt" stroke-width="0.5"/>
   <g font-style="normal" font-size="10" transform="translate(45.4343,294.998) rotate(-0,9,-8)" xml:space="preserve" font-family="FreeSans" font-weight="normal">
    <text y="-0" x="0 3 9 12 " fill="rgb(38,38,38)">-4.4</text>
   </g>
   <g font-style="normal" font-size="10" transform="translate(110.337,294.998) rotate(-0,9,-8)" xml:space="preserve" font-family="FreeSans" font-weight="normal">
    <text y="-0" x="0 3 9 12 " fill="rgb(38,38,38)">-4.2</text>
   </g>
   <g font-style="normal" font-size="10" transform="translate(179.739,294.998) rotate(-0,4.5,-8)" xml:space="preserve" font-family="FreeSans" font-weight="normal">
    <text y="-0" x="0 3 " fill="rgb(38,38,38)">-4</text>
   </g>
   <g font-style="normal" font-size="10" transform="translate(240.142,294.998) rotate(-0,9,-8)" xml:space="preserve" font-family="FreeSans" font-weight="normal">
    <text y="-0" x="0 3 9 12 " fill="rgb(38,38,38)">-3.8</text>
   </g>
   <g font-style="normal" font-size="10" transform="translate(305.044,294.998) rotate(-0,9,-8)" xml:space="preserve" font-family="FreeSans" font-weight="normal">
    <text y="-0" x="0 3 9 12 " fill="rgb(38,38,38)">-3.6</text>
   </g>
   <g font-style="normal" font-size="10" transform="translate(369.946,294.998) rotate(-0,9,-8)" xml:space="preserve" font-family="FreeSans" font-weight="normal">
    <text y="-0" x="0 3 9 12 " fill="rgb(38,38,38)">-3.4</text>
   </g>
   <polyline stroke="#262626" stroke-linejoin="miter" points="54.4343,279.499 57.6746,279.499" fill="none" stroke-linecap="butt" stroke-width="0.5"/>
   <polyline stroke="#262626" stroke-linejoin="miter" points="378.946,279.499 375.706,279.499" fill="none" stroke-linecap="butt" stroke-width="0.5"/>
   <polyline stroke="#262626" stroke-linejoin="miter" points="54.4343,242.935 57.6746,242.935" fill="none" stroke-linecap="butt" stroke-width="0.5"/>
   <polyline stroke="#262626" stroke-linejoin="miter" points="378.946,242.935 375.706,242.935" fill="none" stroke-linecap="butt" stroke-width="0.5"/>
   <polyline stroke="#262626" stroke-linejoin="miter" points="54.4343,206.372 57.6746,206.372" fill="none" stroke-linecap="butt" stroke-width="0.5"/>
   <polyline stroke="#262626" stroke-linejoin="miter" points="378.946,206.372 375.706,206.372" fill="none" stroke-linecap="butt" stroke-width="0.5"/>
   <polyline stroke="#262626" stroke-linejoin="miter" points="54.4343,169.808 57.6746,169.808" fill="none" stroke-linecap="butt" stroke-width="0.5"/>
   <polyline stroke="#262626" stroke-linejoin="miter" points="378.946,169.808 375.706,169.808" fill="none" stroke-linecap="butt" stroke-width="0.5"/>
   <polyline stroke="#262626" stroke-linejoin="miter" points="54.4343,133.244 57.6746,133.244" fill="none" stroke-linecap="butt" stroke-width="0.5"/>
   <polyline stroke="#262626" stroke-linejoin="miter" points="378.946,133.244 375.706,133.244" fill="none" stroke-linecap="butt" stroke-width="0.5"/>
   <polyline stroke="#262626" stroke-linejoin="miter" points="54.4343,96.6806 57.6746,96.6806" fill="none" stroke-linecap="butt" stroke-width="0.5"/>
   <polyline stroke="#262626" stroke-linejoin="miter" points="378.946,96.6806 375.706,96.6806" fill="none" stroke-linecap="butt" stroke-width="0.5"/>
   <polyline stroke="#262626" stroke-linejoin="miter" points="54.4343,60.1169 57.6746,60.1169" fill="none" stroke-linecap="butt" stroke-width="0.5"/>
   <polyline stroke="#262626" stroke-linejoin="miter" points="378.946,60.1169 375.706,60.1169" fill="none" stroke-linecap="butt" stroke-width="0.5"/>
   <polyline stroke="#262626" stroke-linejoin="miter" points="54.4343,23.5533 57.6746,23.5533" fill="none" stroke-linecap="butt" stroke-width="0.5"/>
   <polyline stroke="#262626" stroke-linejoin="miter" points="378.946,23.5533 375.706,23.5533" fill="none" stroke-linecap="butt" stroke-width="0.5"/>
   <g font-style="normal" font-size="10" transform="translate(34.4418,283.499) rotate(-0,15,-4)" xml:space="preserve" font-family="FreeSans" font-weight="normal">
    <text y="-0" x="0 6 9 " fill="rgb(38,38,38)">1.2</text>
   </g>
   <g font-style="normal" font-size="10" transform="translate(28.4418,246.935) rotate(-0,21,-4)" xml:space="preserve" font-family="FreeSans" font-weight="normal">
    <text y="-0" x="0 6 9 15 " fill="rgb(38,38,38)">1.25</text>
   </g>
   <g font-style="normal" font-size="10" transform="translate(34.4418,210.372) rotate(-0,15,-4)" xml:space="preserve" font-family="FreeSans" font-weight="normal">
    <text y="-0" x="0 6 9 " fill="rgb(38,38,38)">1.3</text>
   </g>
   <g font-style="normal" font-size="10" transform="translate(28.4418,173.808) rotate(-0,21,-4)" xml:space="preserve" font-family="FreeSans" font-weight="normal">
    <text y="-0" x="0 6 9 15 " fill="rgb(38,38,38)">1.35</text>
   </g>
   <g font-style="normal" font-size="10" transform="translate(34.4418,137.244) rotate(-0,15,-4)" xml:space="preserve" font-family="FreeSans" font-weight="normal">
    <text y="-0" x="0 6 9 " fill="rgb(38,38,38)">1.4</text>
   </g>
   <g font-style="normal" font-size="10" transform="translate(28.4418,100.681) rotate(-0,21,-4)" xml:space="preserve" font-family="FreeSans" font-weight="normal">
    <text y="-0" x="0 6 9 15 " fill="rgb(38,38,38)">1.45</text>
   </g>
   <g font-style="normal" font-size="10" transform="translate(34.4418,64.117) rotate(-0,15,-4)" xml:space="preserve" font-family="FreeSans" font-weight="normal">
    <text y="-0" x="0 6 9 " fill="rgb(38,38,38)">1.5</text>
   </g>
   <g font-style="normal" font-size="10" transform="translate(28.4418,27.5533) rotate(-0,21,-4)" xml:space="preserve" font-family="FreeSans" font-weight="normal">
    <text y="-0" x="0 6 9 15 " fill="rgb(38,38,38)">1.55</text>
   </g>
   <polyline stroke-dasharray="16,0" stroke="#262626" stroke-linejoin="miter" points="54.4343,279.499 378.946,279.499" fill="none" stroke-linecap="square" stroke-width="0.5"/>
   <polyline stroke-dasharray="16,0" stroke="#262626" stroke-linejoin="miter" points="54.4343,23.5533 378.946,23.5533" fill="none" stroke-linecap="square" stroke-width="0.5"/>
   <polyline stroke-dasharray="16,0" stroke="#262626" stroke-linejoin="miter" points="54.4343,279.499 54.4343,23.5533" fill="none" stroke-linecap="square" stroke-width="0.5"/>
   <polyline stroke-dasharray="16,0" stroke="#262626" stroke-linejoin="miter" points="378.946,279.499 378.946,23.5533" fill="none" stroke-linecap="square" stroke-width="0.5"/>
   <g font-style="normal" font-size="11" transform="translate(194.19,310.998) rotate(-0,22.5,-11)" xml:space="preserve" font-family="FreeSans" font-weight="normal">
    <text y="-2" x="0 3 6 12 16 22 28 34 40 " fill="rgb(38,38,38)">Iterações</text>
   </g>
   <g font-style="normal" font-size="11" transform="translate(-27.5582,151.526) rotate(-90,51,0)" xml:space="preserve" font-family="FreeSans" font-weight="normal">
    <text y="-3" x="0 2 8 14 18 26 32 37 39 45 51 57 60 68 74 76 82 85 87 92 98 " fill="rgb(38,38,38)">log(Resíduo Relativo)</text>
   </g>
   <g font-style="normal" font-size="11" transform="translate(198.69,13.5533) rotate(-0,18,0)" xml:space="preserve" font-family="FreeSans" font-weight="bold">
    <text y="-0" x="0 6 12 18 24 30 " fill="rgb(0,0,0)">cz2548</text>
   </g>
   <polygon points="200.01,155.471 199.01,155.471 198.51,154.605 199.01,153.739 200.01,153.739 200.51,154.605 200.51,154.605" fill="#0071bc" shape-rendering="crispEdges"/>
  </g>
 </g>
</svg>
